<?xml version="1.0" encoding="UTF-8"?><svg id="Layer_2" xmlns="http://www.w3.org/2000/svg" viewBox="0 0 73.2 73.2"><defs><style>.cls-1{fill:#089;}.cls-2{fill:#fff;}</style></defs><g id="Layer_1-2"><path class="cls-1" d="m36.6,73.2c20.2,0,36.6-16.4,36.6-36.6S56.8,0,36.6,0,0,16.4,0,36.6s16.4,36.6,36.6,36.6"/><path class="cls-2" d="m41.8,40.5c0,.6.5,1.1,1.1,1.1h9.2c.6,0,1.1-.5,1.1-1.1s-.5-1.1-1.1-1.1h-9.2c-.6,0-1.1.5-1.1,1.1m-2.3-9.2c0,.6.5,1.1,1.1,1.1h11.5c.6,0,1.1-.5,1.1-1.1s-.5-1.1-1.1-1.1h-11.4c-.7,0-1.2.5-1.2,1.1m0-9.1c0,.6.5,1.1,1.1,1.1h11.5c.6,0,1.1-.5,1.1-1.1s-.5-1.1-1.1-1.1h-11.4c-.7-.1-1.2.4-1.2,1.1m-8,22.9c0-2.1-1.5-3.9-3.4-4.4v-11.6c0-.6-.5-1.1-1.1-1.1s-1.1.5-1.1,1.1v11.6c-2,.5-3.4,2.3-3.4,4.4,0,2.5,2.1,4.6,4.6,4.6,2.3,0,4.4-2.1,4.4-4.6Zm-6.9,0c0-1.3,1-2.3,2.3-2.3s2.3,1,2.3,2.3-1,2.3-2.3,2.3-2.3-1-2.3-2.3m2.3-26.4c-3.8,0-6.9,3.1-6.9,6.9v11.2c0,.3-.2.7-.5,1-1.8,1.9-3,4.4-3,7.2,0,5.7,4.6,10.3,10.3,10.3s10.3-4.6,10.3-10.3c0-2.8-1.1-5.4-3-7.2-.3-.3-.5-.7-.5-1v-11.2c.2-3.8-2.9-6.9-6.7-6.9m-4.6,6.9c0-2.5,2.1-4.6,4.6-4.6s4.6,2.1,4.6,4.6v11.2c0,1.1.5,2,1.1,2.6,1.4,1.4,2.3,3.4,2.3,5.6,0,4.4-3.6,8-8,8s-8-3.6-8-8c0-2.2.9-4.2,2.3-5.6.6-.7,1.1-1.6,1.1-2.6,0,0,0-11.2,0-11.2Z"/></g></svg>