<svg xmlns="http://www.w3.org/2000/svg" xmlns:xlink="http://www.w3.org/1999/xlink" version="1.1" width="256" height="256" viewBox="0 0 256 256" xml:space="preserve">

<defs>
</defs>
<g style="stroke: none; stroke-width: 0; stroke-dasharray: none; stroke-linecap: butt; stroke-linejoin: miter; stroke-miterlimit: 10; fill: none; fill-rule: nonzero; opacity: 1;" transform="translate(1.4065934065934016 1.4065934065934016) scale(2.81 2.81)" >
	<path d="M 65.261 13.49 L 11.113 33.402 H 4.559 C 2.041 33.402 0 35.443 0 37.962 v 11.033 c 0 2.518 2.041 4.559 4.559 4.559 h 6.553 l 1.07 0.393 v 18.283 c 0 2.467 2 4.467 4.467 4.467 h 5.535 c 2.467 0 4.467 -2 4.467 -4.467 V 59.268 l 38.61 14.198 c 1.96 0.721 4.038 -0.73 4.038 -2.818 V 16.308 C 69.3 14.22 67.221 12.769 65.261 13.49 z" style="stroke: none; stroke-width: 1; stroke-dasharray: none; stroke-linecap: butt; stroke-linejoin: miter; stroke-miterlimit: 10; fill: rgb(0,0,0); fill-rule: nonzero; opacity: 1;" transform=" matrix(1 0 0 1 0 0) " stroke-linecap="round" />
	<path d="M 87.514 40.751 H 76.677 c -1.373 0 -2.486 1.113 -2.486 2.486 s 1.113 2.486 2.486 2.486 h 10.837 c 1.373 0 2.486 -1.113 2.486 -2.486 S 88.887 40.751 87.514 40.751 z" style="stroke: none; stroke-width: 1; stroke-dasharray: none; stroke-linecap: butt; stroke-linejoin: miter; stroke-miterlimit: 10; fill: rgb(0,0,0); fill-rule: nonzero; opacity: 1;" transform=" matrix(1 0 0 1 0 0) " stroke-linecap="round" />
	<path d="M 76.679 31.815 c 0.513 0 1.03 -0.158 1.474 -0.486 l 8.698 -6.419 c 1.105 -0.816 1.339 -2.372 0.524 -3.477 c -0.815 -1.105 -2.374 -1.339 -3.477 -0.524 L 75.2 27.329 c -1.105 0.816 -1.339 2.372 -0.524 3.477 C 75.164 31.466 75.916 31.815 76.679 31.815 z" style="stroke: none; stroke-width: 1; stroke-dasharray: none; stroke-linecap: butt; stroke-linejoin: miter; stroke-miterlimit: 10; fill: rgb(0,0,0); fill-rule: nonzero; opacity: 1;" transform=" matrix(1 0 0 1 0 0) " stroke-linecap="round" />
	<path d="M 86.851 61.564 l -8.698 -6.419 c -1.104 -0.814 -2.662 -0.58 -3.477 0.524 c -0.815 1.104 -0.581 2.661 0.524 3.477 l 8.698 6.419 c 0.444 0.327 0.961 0.486 1.474 0.486 c 0.762 0 1.515 -0.35 2.003 -1.01 C 88.19 63.937 87.956 62.38 86.851 61.564 z" style="stroke: none; stroke-width: 1; stroke-dasharray: none; stroke-linecap: butt; stroke-linejoin: miter; stroke-miterlimit: 10; fill: rgb(0,0,0); fill-rule: nonzero; opacity: 1;" transform=" matrix(1 0 0 1 0 0) " stroke-linecap="round" />
</g>
</svg>