<?xml version="1.0" encoding="UTF-8" standalone="no"?>
<svg
   version="1.1"
   width="256"
   height="256"
   viewBox="0 0 256 256"
   xml:space="preserve"
   id="svg1"
   xmlns="http://www.w3.org/2000/svg"
   xmlns:svg="http://www.w3.org/2000/svg">

<defs
   id="defs1">
</defs>
<path
   id="rect5-8-3"
   style="fill:#000000;stroke:#ffffff;stroke-width:3.54669;stroke-opacity:0"
   d="M 80.378906 22.335938 C 66.472244 22.335938 54.85024 32.277817 52.228516 45.425781 L 7.0273438 45.425781 C 3.9251101 45.425781 1.40625 47.942688 1.40625 51.044922 C 1.40625 54.147156 3.9251101 56.666016 7.0273438 56.666016 L 52.228516 56.666016 C 54.85024 69.813978 66.469434 79.755859 80.378906 79.755859 L 175.33789 79.755859 C 189.24456 79.755859 200.86655 69.813978 203.48828 56.666016 L 210.2832 56.666016 C 228.35991 56.666016 243.06641 71.373621 243.06641 89.453125 C 243.06641 107.53263 228.3588 122.23633 210.2793 122.23633 L 203.48438 122.23633 C 200.86266 109.08836 189.24346 99.146484 175.33398 99.146484 L 80.378906 99.146484 C 66.472244 99.146484 54.85024 109.08836 52.228516 122.23633 L 45.431641 122.23633 C 21.156099 122.23633 1.40625 141.98533 1.40625 166.26367 C 1.40625 190.53922 21.156099 210.28711 45.431641 210.28711 L 52.228516 210.28711 C 54.85024 223.43508 66.469434 233.38086 80.378906 233.38086 L 175.33789 233.38086 C 189.24456 233.38086 200.86655 223.43508 203.48828 210.28711 L 235.12305 210.28711 L 226.94531 218.46484 C 224.7507 220.65945 224.7507 224.2175 226.94531 226.41211 C 228.04402 227.51082 229.4812 228.05859 230.91992 228.05859 C 232.35864 228.05859 233.79387 227.51082 234.89258 226.41211 L 252.66016 208.64453 C 252.9243 208.3832 253.15729 208.09316 253.36523 207.78125 C 253.45513 207.64918 253.51507 207.50292 253.59375 207.36523 C 253.68925 207.18539 253.79827 207.00834 253.87695 206.81445 C 253.95285 206.6318 253.99458 206.44022 254.05078 206.25195 C 254.09858 206.08897 254.15964 205.93618 254.19336 205.76758 C 254.33667 205.0426 254.33667 204.29139 254.19336 203.56641 C 254.15966 203.39781 254.09856 203.24306 254.05078 203.08008 C 253.99458 202.89181 253.95278 202.70023 253.87695 202.51758 C 253.79825 202.32369 253.68905 202.14945 253.58789 201.9668 C 253.51199 201.82911 253.44929 201.68285 253.35938 201.55078 C 253.15145 201.24168 252.91844 200.95359 252.6543 200.68945 L 234.88672 182.92188 C 232.69211 180.72728 229.13406 180.72728 226.93945 182.92188 C 224.74486 185.11648 224.74486 188.67258 226.93945 190.86719 L 235.11719 199.04492 L 203.48438 199.04492 C 200.86266 185.89697 189.24346 175.95508 175.33398 175.95508 L 80.378906 175.95508 C 66.472244 175.95508 54.85024 185.89697 52.228516 199.04492 L 45.431641 199.04492 C 27.354947 199.04792 12.646484 184.34317 12.646484 166.26367 C 12.646484 148.18417 27.354947 133.47656 45.431641 133.47656 L 52.228516 133.47656 C 54.85024 146.62453 66.469434 156.56641 80.378906 156.56641 L 175.33789 156.56641 C 189.24456 156.56641 200.86655 146.62453 203.48828 133.47656 L 210.2832 133.47656 C 234.55875 133.47656 254.30664 113.72867 254.30664 89.453125 C 254.30664 65.177583 234.55764 45.425781 210.2793 45.425781 L 203.48438 45.425781 C 200.86266 32.277817 189.24346 22.335938 175.33398 22.335938 L 80.378906 22.335938 z " />
</svg>
