<svg xmlns="http://www.w3.org/2000/svg" xmlns:xlink="http://www.w3.org/1999/xlink" version="1.1" width="256" height="256" viewBox="0 0 256 256" xml:space="preserve">

<defs>
</defs>
<g style="stroke: none; stroke-width: 0; stroke-dasharray: none; stroke-linecap: butt; stroke-linejoin: miter; stroke-miterlimit: 10; fill: none; fill-rule: nonzero; opacity: 1;" transform="translate(1.4065934065934016 1.4065934065934016) scale(2.81 2.81)" >
	<path d="M 69.982 12.744 c -1.326 -0.924 -3.023 -1.144 -4.54 -0.585 L 12.565 31.603 H 6.48 C 2.907 31.603 0 34.51 0 38.083 v 10.842 c 0 3.573 2.907 6.48 6.48 6.48 h 5.492 V 71.76 c 0 3.522 2.866 6.389 6.389 6.389 H 23.8 c 3.523 0 6.39 -2.866 6.39 -6.389 v -9.872 l 35.252 12.963 c 0.555 0.204 1.133 0.305 1.708 0.305 c 0.999 0 1.99 -0.303 2.832 -0.89 c 1.326 -0.925 2.118 -2.443 2.118 -4.061 V 16.804 C 72.101 15.187 71.309 13.669 69.982 12.744 z M 4 48.926 V 38.083 c 0 -1.368 1.113 -2.481 2.48 -2.481 h 4.44 v 15.804 H 6.48 C 5.113 51.406 4 50.294 4 48.926 z M 26.19 60.417 V 71.76 c 0 1.317 -1.072 2.389 -2.39 2.389 h -5.439 c -1.317 0 -2.389 -1.071 -2.389 -2.389 v -15.1 l 2.182 0.802 L 26.19 60.417 z M 68.101 70.205 c 0 0.432 -0.255 0.674 -0.406 0.779 c -0.151 0.106 -0.465 0.263 -0.87 0.112 c -0.001 0 -0.001 0 -0.001 0 L 14.92 52.011 V 34.998 l 51.903 -19.086 c 0.405 -0.148 0.72 0.007 0.871 0.112 c 0.151 0.106 0.406 0.348 0.406 0.78 V 70.205 z" style="stroke: none; stroke-width: 1; stroke-dasharray: none; stroke-linecap: butt; stroke-linejoin: miter; stroke-miterlimit: 10; fill: rgb(0,0,0); fill-rule: nonzero; opacity: 1;" transform=" matrix(1 0 0 1 0 0) " stroke-linecap="round" />
	<path d="M 88 41.268 H 77.35 c -1.104 0 -2 0.896 -2 2 s 0.896 2 2 2 H 88 c 1.104 0 2 -0.896 2 -2 S 89.104 41.268 88 41.268 z" style="stroke: none; stroke-width: 1; stroke-dasharray: none; stroke-linecap: butt; stroke-linejoin: miter; stroke-miterlimit: 10; fill: rgb(0,0,0); fill-rule: nonzero; opacity: 1;" transform=" matrix(1 0 0 1 0 0) " stroke-linecap="round" />
	<path d="M 77.352 31.6 c 0.412 0 0.828 -0.127 1.186 -0.391 l 8.548 -6.308 c 0.889 -0.656 1.077 -1.908 0.422 -2.797 c -0.657 -0.889 -1.907 -1.08 -2.797 -0.422 l -8.548 6.308 c -0.889 0.656 -1.077 1.908 -0.422 2.797 C 76.133 31.319 76.737 31.6 77.352 31.6 z" style="stroke: none; stroke-width: 1; stroke-dasharray: none; stroke-linecap: butt; stroke-linejoin: miter; stroke-miterlimit: 10; fill: rgb(0,0,0); fill-rule: nonzero; opacity: 1;" transform=" matrix(1 0 0 1 0 0) " stroke-linecap="round" />
	<path d="M 87.085 61.634 l -8.548 -6.308 c -0.89 -0.656 -2.141 -0.466 -2.797 0.422 c -0.655 0.889 -0.467 2.141 0.422 2.797 l 8.548 6.308 c 0.357 0.264 0.773 0.391 1.186 0.391 c 0.613 0 1.219 -0.281 1.611 -0.813 C 88.162 63.542 87.974 62.29 87.085 61.634 z" style="stroke: none; stroke-width: 1; stroke-dasharray: none; stroke-linecap: butt; stroke-linejoin: miter; stroke-miterlimit: 10; fill: rgb(0,0,0); fill-rule: nonzero; opacity: 1;" transform=" matrix(1 0 0 1 0 0) " stroke-linecap="round" />
</g>
</svg>