<svg xmlns="http://www.w3.org/2000/svg" xmlns:xlink="http://www.w3.org/1999/xlink" version="1.1" width="256" height="256" viewBox="0 0 256 256" xml:space="preserve">

<defs>
</defs>
<g style="stroke: none; stroke-width: 0; stroke-dasharray: none; stroke-linecap: butt; stroke-linejoin: miter; stroke-miterlimit: 10; fill: none; fill-rule: nonzero; opacity: 1;" transform="translate(1.4065934065934016 1.4065934065934016) scale(2.81 2.81)" >
	<path d="M 89.847 73.099 c 0.027 -0.065 0.042 -0.133 0.062 -0.2 c 0.017 -0.058 0.039 -0.113 0.051 -0.173 c 0.051 -0.258 0.051 -0.525 0 -0.783 c -0.012 -0.06 -0.034 -0.115 -0.051 -0.173 c -0.02 -0.067 -0.035 -0.135 -0.062 -0.2 c -0.028 -0.069 -0.067 -0.131 -0.103 -0.196 c -0.027 -0.049 -0.049 -0.101 -0.081 -0.148 c -0.074 -0.11 -0.157 -0.213 -0.251 -0.307 l -6.323 -6.323 c -0.781 -0.781 -2.047 -0.781 -2.828 0 s -0.781 2.047 0 2.828 l 2.91 2.91 H 71.914 c -0.933 -4.679 -5.068 -8.217 -10.018 -8.217 H 28.104 c -4.949 0 -9.085 3.538 -10.018 8.217 h -2.419 C 9.234 70.335 4 65.102 4 58.668 S 9.234 47 15.667 47 h 2.419 c 0.933 4.679 5.068 8.217 10.018 8.217 h 33.793 c 4.949 0 9.085 -3.538 10.018 -8.217 h 2.418 C 82.972 47 90 39.972 90 31.333 s -7.028 -15.668 -15.668 -15.668 h -2.418 c -0.933 -4.679 -5.068 -8.217 -10.018 -8.217 H 28.104 c -4.949 0 -9.085 3.538 -10.018 8.217 H 2 c -1.104 0 -2 0.896 -2 2 s 0.896 2 2 2 h 16.086 c 0.933 4.679 5.068 8.217 10.018 8.217 h 33.793 c 4.949 0 9.085 -3.538 10.018 -8.217 h 2.418 C 80.766 19.665 86 24.899 86 31.333 S 80.766 43 74.332 43 h -2.418 c -0.933 -4.679 -5.068 -8.217 -10.018 -8.217 H 28.104 c -4.949 0 -9.085 3.538 -10.018 8.217 h -2.419 C 7.028 43 0 50.028 0 58.668 c 0 8.639 7.028 15.667 15.667 15.667 h 2.419 c 0.933 4.679 5.068 8.218 10.018 8.218 h 33.793 c 4.949 0 9.085 -3.539 10.018 -8.218 h 11.258 l -2.91 2.91 c -0.781 0.781 -0.781 2.047 0 2.828 c 0.391 0.391 0.902 0.586 1.414 0.586 s 1.023 -0.195 1.414 -0.586 l 6.323 -6.323 c 0.094 -0.093 0.177 -0.196 0.251 -0.307 c 0.032 -0.047 0.053 -0.099 0.081 -0.148 C 89.78 73.231 89.819 73.168 89.847 73.099 z M 61.896 23.882 H 28.104 c -3.428 0 -6.217 -2.789 -6.217 -6.217 c 0 -3.428 2.789 -6.217 6.217 -6.217 h 33.793 c 3.428 0 6.217 2.789 6.217 6.217 C 68.113 21.093 65.324 23.882 61.896 23.882 z M 28.104 38.783 h 33.793 c 3.428 0 6.217 2.789 6.217 6.217 c 0 3.428 -2.789 6.217 -6.217 6.217 H 28.104 c -3.428 0 -6.217 -2.789 -6.217 -6.217 C 21.887 41.572 24.676 38.783 28.104 38.783 z M 61.896 78.553 H 28.104 c -3.428 0 -6.217 -2.789 -6.217 -6.218 c 0 -3.428 2.789 -6.217 6.217 -6.217 h 33.793 c 3.428 0 6.217 2.789 6.217 6.217 C 68.113 75.764 65.324 78.553 61.896 78.553 z" style="stroke: none; stroke-width: 1; stroke-dasharray: none; stroke-linecap: butt; stroke-linejoin: miter; stroke-miterlimit: 10; fill: rgb(0,0,0); fill-rule: nonzero; opacity: 1;" transform=" matrix(1 0 0 1 0 0) " stroke-linecap="round" />
</g>
</svg>